<svg width="442" height="303" viewBox="0 0 442 303" fill="none" xmlns="http://www.w3.org/2000/svg">
<path d="M105.624 87.2794C123.021 79.4637 137.121 65.8554 150.202 51.9033C163.283 37.9512 175.886 23.2481 191.571 12.3553C201.642 5.35604 214.201 -0.0862398 226.018 3.4928C237.394 6.95421 244.937 17.7282 250.852 28.1688C255.306 36.0278 259.467 44.5034 259.497 53.5133C259.516 59.7697 257.533 65.8272 256.981 72.0678C255.036 93.7204 270.389 113.323 287.337 126.927C295.284 133.309 303.835 139.022 310.935 146.353C318.034 153.684 323.721 163.079 324.163 173.283C324.607 183.405 319.855 193.026 313.698 200.929C301.191 216.971 328.578 261.92 266.528 292.863C226.389 312.879 182.466 271.651 140.258 286.814C124.636 292.425 108.946 298.055 92.6486 301.25C83.5969 303.024 73.9005 303.972 65.36 300.338C54.5062 295.702 47.3374 283.367 48.6501 271.588C50.849 251.829 73.3194 238.15 72.4255 218.247C71.9284 207.296 64.1982 197.962 55.7544 190.997C37.6414 176.05 13.403 166.281 3.72712 144.785C-2.91908 130.025 -0.51754 111.619 9.66072 99.305C20.3281 86.3982 39.6346 79.7643 54.6365 88.0664C70.083 96.5836 90.2614 94.1787 105.624 87.2794Z" fill="white"/>
<path d="M116.83 37.2852C111.316 37.2947 106.029 39.6916 102.13 43.9486C98.231 48.2056 96.0407 53.974 96.0405 59.9849L116.83 59.9496L116.83 37.2852Z" fill="#5974FF"/>
<path d="M112.137 34.3419C106.838 34.4435 101.768 36.7871 98.0058 40.8953C94.2357 45.0119 92.083 50.5685 92.0049 56.3828L112.137 56.3486L112.137 34.3419Z" stroke="#0A2FF1" stroke-width="0.654828"/>
<path d="M64.9281 225.015C64.9281 225.015 88.7417 226.324 88.3967 230.56C88.0517 234.797 59.2463 239.291 40.0716 230.56C40.0769 230.56 41.707 224.704 64.9281 225.015Z" fill="#3FFFF3"/>
<path d="M40.0716 230.282C40.3165 233.51 40.7321 236.714 41.3159 239.873C41.6034 241.403 41.9197 242.82 42.2556 244.132C42.3427 244.458 42.4299 244.784 42.517 245.111C42.7104 245.819 42.9095 246.495 43.1143 247.14C44.3107 250.916 46.2289 254.269 48.7016 256.907C51.1744 259.544 54.1265 261.387 57.3005 262.273C69.8295 265.771 78.4256 259.009 78.4256 259.009C83.7987 254.809 86.3591 249.1 87.5198 243.879C87.5825 243.593 87.6426 243.311 87.6962 243.029C87.8334 242.332 87.9458 241.648 88.0373 240.979C88.8542 235.012 88.0373 230.297 88.0373 230.297C71.2606 239.587 40.0716 230.282 40.0716 230.282Z" fill="#04146C"/>
<path d="M37.7627 237.792C39.2458 237.781 40.6872 238.313 41.8449 239.3C41.917 239.655 41.9912 240.005 42.0674 240.348C42.4026 241.869 42.7714 243.278 43.163 244.58C43.2645 244.904 43.3661 245.228 43.4677 245.553L43.5195 245.715C42.6662 247.985 40.4141 249.606 37.7673 249.606C34.3891 249.606 31.6509 246.963 31.6509 243.704C31.6509 240.446 34.3845 237.792 37.7627 237.792ZM37.7627 248.019C40.2404 248.019 42.2487 246.081 42.2487 243.691C42.2487 241.302 40.2404 239.364 37.7627 239.364C35.2851 239.364 33.2767 241.31 33.2767 243.691C33.2767 246.073 35.2851 248.019 37.7627 248.019Z" fill="#04146C"/>
<path opacity="0.05" d="M43.0442 246.372C43.0442 246.372 44.129 246.678 44.033 247.02L43.0442 246.372Z" fill="black"/>
<path opacity="0.05" d="M41.5564 241.661V241.722C41.564 241.791 41.5701 241.862 41.5777 241.936C41.6493 241.909 41.7194 241.878 41.7865 241.846L41.884 241.799C42.1997 241.637 42.4984 241.44 42.7754 241.212L41.9404 240.831L41.6935 240.717C41.6021 240.774 41.5412 240.826 41.529 240.87C41.5096 241.134 41.5188 241.399 41.5564 241.661Z" fill="black"/>
<path opacity="0.03" d="M39.2285 241.594C39.2285 241.594 37.3437 241.839 36.9703 242.253C36.9703 242.253 38.6251 242.376 38.6967 242.604C38.6967 242.604 37.7505 241.925 37.4884 242.1L39.2285 241.594Z" fill="black"/>
<path opacity="0.3" d="M45.3681 254.062C45.3788 254.18 45.3834 254.298 45.3864 254.4C45.3898 254.533 45.4374 254.659 45.5208 254.757C45.5516 254.516 45.5654 254.274 45.562 254.031C45.5452 254.065 45.4582 254.068 45.3681 254.062Z" fill="#BDBBBB"/>
<path fill-rule="evenodd" clip-rule="evenodd" d="M52.0948 123.18C49.1975 127.512 46.1523 134.151 43.9357 143.905C42.5549 149.981 42.8337 154.799 44.1046 158.887C45.3763 162.978 47.6467 166.353 50.276 169.536C51.5222 171.045 52.8464 172.508 54.1825 173.983C54.2564 174.065 54.3304 174.147 54.4044 174.228C55.8143 175.786 57.2327 177.361 58.5736 179.015C61.2563 182.326 63.6356 185.962 65.036 190.443C69.5096 204.76 63.176 215.071 59.4168 218.454L59.1138 218.114C62.7599 214.832 69.0153 204.702 64.6026 190.58C63.226 186.175 60.8845 182.59 58.2214 179.304C56.8894 177.66 55.4789 176.094 54.0684 174.536C53.9938 174.453 53.9191 174.371 53.8445 174.288C52.5102 172.815 51.1795 171.345 49.9265 169.828C47.2797 166.624 44.9679 163.195 43.671 159.023C42.3732 154.849 42.0965 149.947 43.4928 143.803C45.7193 134.005 48.7835 127.313 51.7178 122.925C54.6468 118.545 57.4595 116.443 59.1938 115.865L59.3368 116.298C57.7387 116.831 54.9975 118.839 52.0948 123.18Z" stroke="#0A2FF1" stroke-width="0.327414"/>
<path fill-rule="evenodd" clip-rule="evenodd" d="M68.7948 140.731C66.8437 143.761 64.7902 148.408 63.2948 155.242C62.3644 159.494 62.5529 162.863 63.4078 165.718C64.2633 168.576 65.7908 170.935 67.563 173.163C68.4032 174.22 69.2962 175.244 70.1985 176.279C70.2483 176.336 70.2981 176.393 70.348 176.45C71.2997 177.542 72.2585 178.648 73.165 179.81C74.9792 182.134 76.5903 184.69 77.5385 187.842C80.5649 197.9 76.2827 205.151 73.7266 207.541L73.4021 207.213C75.8453 204.929 80.0619 197.849 77.0892 187.97C76.1627 184.89 74.5867 182.384 72.792 180.084C71.8941 178.934 70.943 177.837 69.9908 176.744C69.9403 176.686 69.8899 176.629 69.8394 176.571C68.9388 175.538 68.0395 174.506 67.1926 173.442C65.4028 171.191 63.8369 168.78 62.9583 165.845C62.0791 162.909 61.8926 159.463 62.837 155.147C64.3412 148.273 66.412 143.574 68.3979 140.49C70.378 137.415 72.2884 135.924 73.4858 135.509L73.6429 135.938C72.5906 136.302 70.7517 137.692 68.7948 140.731Z" stroke="#0A2FF1" stroke-width="0.327414"/>
<path d="M359.443 104.428C361.521 98.0832 365.238 92.4053 370.21 87.9834C375.182 83.5614 381.226 80.5565 387.716 79.2803C394.207 78.0042 400.906 78.5033 407.12 80.7259C413.334 82.9485 418.835 86.8136 423.054 91.9202C427.273 97.0268 430.055 103.189 431.112 109.767C432.169 116.345 431.462 123.1 429.065 129.331C426.667 135.561 422.667 141.04 417.478 145.2C412.29 149.36 406.102 152.048 399.558 152.986L399.368 151.575C405.663 150.673 411.615 148.087 416.605 144.086C421.596 140.085 425.444 134.815 427.75 128.822C430.056 122.829 430.736 116.331 429.719 110.004C428.703 103.676 426.027 97.749 421.969 92.8371C417.911 87.9251 412.619 84.2073 406.642 82.0695C400.665 79.9316 394.221 79.4515 387.978 80.679C381.735 81.9066 375.921 84.7969 371.139 89.0503C366.357 93.3037 362.781 98.7652 360.782 104.868L359.443 104.428Z" fill="#04146C"/>
<path d="M365.292 103.889L356.74 101.775L358.174 112.433L365.292 103.889Z" fill="#04146C"/>
<path d="M244.733 46.51C256.249 27.968 263.926 38.7842 266.326 46.51V64.0931L227.139 84.873L210.345 127.232C218.876 145.614 237.696 184.137 244.733 191.17C253.53 199.962 223.521 142.01 249.53 148.75C282.665 157.337 292.866 107.99 291.267 92.005C290.494 84.2839 284.368 46.51 273.673 26.4686C267.275 14.48 260.077 6.59481 249.532 3.3515C232.355 -1.93101 185.703 -5.50078 177.557 34.5213C166.697 87.87 125.506 127.232 165.71 133.327C205.915 139.421 138.603 148.75 165.71 148.75C209.365 148.75 210.345 85.6719 201.548 80.0773C192.751 74.4827 195.151 40.9152 210.345 58.4982C225.54 76.0812 230.338 69.6876 244.733 46.51Z" fill="#3957F1"/>
<path d="M277.464 90.5637C277.464 62.7901 274.484 31.8519 257.366 34.9422L250.732 55.2901L204.21 98.4529L207.513 147.637L248.541 171.278C252.224 170.501 225.243 151.484 236.826 147.637C251.306 142.829 250.737 150.808 264.111 138.784C277.464 126.779 277.464 115.864 277.464 90.5637Z" fill="#04146C"/>
<path d="M219.177 106.052C275.273 125.233 276.188 62.0581 263.277 39.3401C250.482 23.3557 241.373 51.3585 228.89 58.5219C217.009 65.3392 212.78 58.098 207.182 52.5034C201.584 46.9088 193.587 52.5034 193.587 62.8933C193.587 73.2833 203.983 75.681 201.584 106.052C199.664 130.348 171.994 134.824 158.399 134.025C167.996 148.943 194.866 178.302 225.575 176.384C256.285 174.465 247.968 147.345 239.97 134.025C233.039 133.225 219.178 130.348 219.178 125.233L219.177 106.052Z" fill="#F8F8F8"/>
<path d="M175.309 133.739C210.497 176.577 231.023 151.588 236.887 133.739C249.043 128.624 254.215 135.87 255.281 140.133L260.879 224.051L260.879 256.82H236.887C234.488 256.02 221.853 254.902 190.504 256.82C159.155 258.738 132.657 250.692 123.327 246.43C126.259 217.391 134.043 155.478 141.721 140.133C149.398 124.787 167.312 129.476 175.309 133.739Z" fill="#8A9AF1"/>
<path d="M231.289 255.847H247.283C240.246 255.847 240.619 234.534 241.685 223.877C250.002 209.172 241.952 185.781 236.887 175.924C247.763 203.417 242.485 217.484 231.289 228.673V255.847Z" fill="#0A2FF1"/>
<path d="M152.915 235.067L197.699 245.457L160.112 229.472L165.71 189.511L160.112 175.924L152.915 235.067Z" fill="#0A2FF1"/>
<path d="M359.732 256.23H136.422C136.422 251.758 140.048 248.131 144.521 248.131H191.992L213.329 132.534C213.711 130.464 215.516 128.961 217.622 128.961H380.072C382.804 128.961 384.865 131.443 384.363 134.129L361.878 254.449C361.685 255.482 360.783 256.23 359.732 256.23Z" fill="#04146C"/>
<path d="M296.141 202.364H278.864C278.354 202.364 277.932 201.939 277.932 201.425L281.919 184.97C281.919 184.456 282.341 184.031 282.852 184.031H300.128C300.639 184.031 301.061 184.456 301.061 184.97L297.073 201.425C297.051 201.939 296.651 202.364 296.141 202.364ZM282.769 197.266C282.769 197.959 283.213 198.429 283.924 198.429C284.634 198.429 285.078 197.959 285.078 197.266L287.471 189.061C287.471 188.368 287.027 187.899 286.316 187.899C285.606 187.899 285.162 188.368 285.162 189.061L282.769 197.266ZM289.653 197.266C289.653 197.959 290.097 198.429 290.807 198.429C291.518 198.429 291.962 197.959 291.962 197.266L294.355 190.045H296.531C297.197 190.045 297.73 189.71 297.73 189.084C297.73 188.458 297.197 188.122 296.531 188.122H289.891C289.225 188.122 288.692 188.458 288.692 189.084C288.692 189.71 289.225 190.045 289.891 190.045H292.068L289.675 197.266H289.653Z" fill="white"/>
<circle cx="326.869" cy="55.2929" r="13.6423" fill="#3FFFF3"/>
<path d="M345.695 50.9274C345.695 58.3012 339.475 64.2968 331.78 64.2968C324.084 64.2968 317.865 58.3012 317.865 50.9274C317.865 43.5537 324.084 37.558 331.78 37.558C339.475 37.558 345.695 43.5537 345.695 50.9274Z" stroke="#0A2FF1" stroke-width="0.54569"/>
</svg>
