<svg width="240" height="200" viewBox="0 0 240 200" fill="none" xmlns="http://www.w3.org/2000/svg">
<path d="M165.955 56.5255C154.375 51.323 144.989 42.2647 136.282 32.9776C127.574 23.6904 119.185 13.9034 108.744 6.65267C102.041 1.99366 93.6812 -1.62897 85.8155 0.753399C78.2429 3.05747 73.2221 10.2291 69.2845 17.1789C66.32 22.4101 63.55 28.0518 63.5299 34.0493C63.5174 38.2138 64.8373 42.2459 65.2048 46.4C66.4995 60.8129 56.2799 73.861 44.9988 82.917C39.7089 87.1649 34.0168 90.9676 29.2909 95.8474C24.565 100.727 20.7794 106.981 20.4855 113.773C20.1899 120.511 23.3529 126.915 27.4512 132.175C35.7766 142.854 17.5467 172.774 58.85 193.371C85.5681 206.695 114.805 179.251 142.901 189.345C153.299 193.079 163.743 196.827 174.592 198.954C180.617 200.134 187.071 200.765 192.756 198.346C199.981 195.261 204.753 187.05 203.879 179.21C202.415 166.057 187.458 156.952 188.053 143.704C188.384 136.414 193.53 130.201 199.15 125.565C211.207 115.615 227.341 109.112 233.782 94.804C238.206 84.9788 236.607 72.7272 229.832 64.5302C222.731 55.9389 209.88 51.5231 199.894 57.0493C189.612 62.7188 176.181 61.1179 165.955 56.5255Z" fill="#EFF2FF"/>
<path d="M128.649 83.661C93.5594 89.3095 82.8671 53.3828 99.1035 31.9888C99.1035 31.9888 120.488 41.6743 128.649 42.4848C132.95 42.9119 130.583 58.7295 131.577 61.0524L138.705 57.0163C139.222 48.9402 140.472 47.8532 142.665 46.1146C144.705 44.4971 150.189 46.9247 145.041 57.0163C141.562 63.8352 139.676 61.1951 141.417 83.661C143.106 105.455 151.764 111.62 161.63 111.029C154.666 122.064 146.292 137.106 124.006 135.688C101.72 134.269 107.756 114.207 113.56 104.353C118.59 103.762 128.649 101.419 128.649 95.3637V83.661Z" fill="#161485"/>
<path d="M129.493 83.1491C93.577 88.821 82.633 52.7456 99.2516 31.263C99.2516 31.263 120.06 28.7487 130.864 37.2569C130.865 37.2574 130.866 37.2579 130.868 37.2583L142.561 34.8268C143.091 26.7173 141.594 47.193 143.838 45.4472C145.926 43.823 151.539 46.2607 146.27 56.394C142.71 63.2411 141.685 62.5327 143.467 85.0916C145.196 106.976 163.253 102.517 166.901 107.787C159.772 118.868 147.551 136.816 124.741 135.391C101.93 133.966 108.108 113.821 114.048 103.927C119.196 103.333 129.493 100.98 129.493 94.9001V83.1491Z" fill="white"/>
<path d="M144.213 15.978C135.936 8.7397 129.27 6.8584 118.666 6.8584C108.062 6.8584 99.4703 12.9271 92.9068 13.4549C86.3433 13.9826 81.8083 7.89734 77.768 15.978C73.7277 24.0587 88.883 37.6968 98.9756 39.7087C109.068 41.7207 123.201 38.7028 127.241 38.1916C131.112 37.9262 134.997 37.9262 138.868 38.1916C138.868 38.1916 135.833 47.7894 138.868 50.8238C141.902 53.8582 142.397 55.8701 142.397 57.882C142.57 60.1025 142.906 62.3073 143.403 64.4784L144.213 69.6849L148.032 62.7942C153.301 56.3089 154.846 50.1589 156.035 44.2933C157.536 35.2067 152.49 23.2163 144.213 15.978Z" fill="#3957F1"/>
<path fill-rule="evenodd" clip-rule="evenodd" d="M143.904 64.5585C145.057 62.1616 145.914 59.6201 146.448 56.9886C147.948 47.902 140.379 38.8483 140.379 38.8483L130.781 29.1515C130.781 29.1515 119.683 19.5537 109.079 19.5537C102.835 19.5537 97.2895 21.6575 92.4445 23.4955C89.0606 24.7792 86.0186 25.9332 83.3196 26.1502C82.1103 26.2474 80.9698 26.1201 79.8887 25.8984C84.0972 32.2649 92.7231 38.4096 99.2388 39.7085C107.658 41.3868 118.889 39.565 124.727 38.618C125.887 38.4298 126.835 38.2761 127.505 38.1913C131.375 37.9259 135.26 37.9259 139.131 38.1913C139.131 38.1913 136.097 47.7892 139.131 50.8235C142.165 53.8579 142.66 55.8698 142.66 57.8817C142.833 60.1022 143.169 62.307 143.666 64.4782L143.904 64.5585Z" fill="#04146C"/>
<path d="M179.464 115.892C173.724 98.7897 157.535 98.4629 147.848 98.463C147.848 98.463 145.947 96.6152 122.312 99.679C100.424 102.516 97.9922 113.944 97.9922 118.73V176.687V191.848L117.792 195.024C131.178 195.024 127.346 194.806 150.65 196.298C173.954 197.79 189.147 192.401 196.083 189.085C191.62 163.189 183.703 128.524 179.464 115.892Z" fill="#3957F1"/>
<path d="M114.716 135.896C117.085 168.55 116.274 181.243 116.274 195.48L112.626 195.074C115.121 173.156 113.905 171.34 114.716 135.896Z" fill="white"/>
<path d="M176.81 186.369L143.573 194.121L171.469 182.194L167.314 152.377L171.469 142.239L176.81 186.369Z" fill="white"/>
<path d="M141.325 122.661C133.106 127.399 125.962 113.867 127.178 98.8695L136.906 97.6373L147.619 97.6373C147.075 105.4 149.544 117.922 141.325 122.661Z" fill="white"/>
<path d="M151.153 51.4388C142.754 51.7939 140.4 36.5488 140.4 36.5488C140.4 36.5488 125.866 34.8536 123.261 24.0755C123.261 24.0755 109.995 33.4791 99.0485 30.0773C88.1021 26.6755 89.7818 14.3626 90.8559 11.6938C91.9299 9.02509 98.123 13.5952 98.123 13.5952C98.123 13.5952 98.4772 6.65413 100.283 5.86381C102.088 5.07349 104.293 9.16253 104.293 9.16253C104.293 9.16253 117.936 3.84793 130.574 3.61886C143.211 3.38978 149.998 15.7943 149.998 15.7943C149.998 15.7943 156.854 16.9397 159.197 21.5213C161.539 26.1028 156.511 51.2555 151.153 51.4388Z" fill="#3957F1"/>
<path d="M141.837 26.797C141.082 24.0398 139.614 21.53 137.581 19.5203C135.559 17.5619 132.954 16.3148 130.16 15.9676C129.469 15.846 128.77 15.7737 128.068 15.7512L125.949 15.8143C124.542 15.9225 123.145 16.2381 121.747 16.4726C120.386 16.8783 118.979 17.1939 117.635 17.6628C116.292 18.1317 114.93 18.6817 113.578 19.1596C114.867 18.5104 116.175 17.9063 117.482 17.2751C118.789 16.6439 120.187 16.3193 121.585 15.8324C124.408 15.0143 127.367 14.7721 130.286 15.12C133.244 15.5212 135.98 16.9097 138.05 19.0604C140.057 21.2026 141.377 23.8975 141.837 26.797Z" fill="#BDBBBB"/>
<path d="M117.478 59.988C119.276 59.8154 120.985 59.1783 122.412 58.1492C123.839 57.1202 124.925 55.7405 125.548 54.167C126.171 52.5935 126.305 50.8895 125.935 49.2488C125.566 47.6081 124.707 46.0966 123.456 44.8862C122.206 43.6758 120.615 42.8152 118.863 42.4021C117.111 41.9891 115.27 42.0402 113.548 42.5498C111.826 43.0594 110.293 44.0069 109.123 45.2845C107.953 46.5622 107.193 48.1187 106.93 49.7769C106.561 52.1205 107.206 54.5044 108.724 56.409C110.242 58.3136 112.51 59.5846 115.035 59.9451C115.844 60.0539 116.665 60.0683 117.478 59.988ZM115.625 43.3668C117.358 43.2029 119.103 43.5449 120.616 44.3452C122.129 45.1455 123.334 46.364 124.064 47.8306C124.794 49.2972 125.011 50.9386 124.686 52.5254C124.362 54.1123 123.51 55.5654 122.251 56.6817C120.993 57.7981 119.389 58.5219 117.665 58.7521C115.941 58.9824 114.183 58.7075 112.635 57.9659C111.088 57.2243 109.829 56.053 109.035 54.6157C108.24 53.1783 107.949 51.5467 108.203 49.9487C108.48 48.2445 109.359 46.6737 110.702 45.4826C112.046 44.2914 113.777 43.5473 115.625 43.3668Z" fill="#0A2FF1"/>
<path d="M95.3152 59.5926C98.9971 59.249 101.938 55.4373 102.007 50.7666C102.087 48.532 101.406 46.3309 100.062 44.4746C99.5386 43.6472 98.7938 42.9589 97.8997 42.4762C97.0057 41.9934 95.9926 41.7324 94.9581 41.7184C93.9236 41.7043 92.9027 41.9378 91.9938 42.3961C91.0849 42.8544 90.3187 43.5222 89.7691 44.335C88.3764 46.1582 87.6316 48.339 87.6387 50.5733C87.5577 55.5124 90.7185 59.5711 94.6784 59.6248C94.8911 59.6251 95.1037 59.6143 95.3152 59.5926ZM94.4468 42.9285H94.9447C95.7669 42.9764 96.5648 43.2061 97.2718 43.5983C97.9788 43.9906 98.5744 44.534 99.0087 45.1833C100.195 46.8328 100.794 48.7852 100.722 50.7666C100.653 55.0615 97.9666 58.4867 94.7015 58.4437C91.4364 58.4008 88.8545 54.8897 88.9123 50.6163C88.8988 48.6332 89.5547 46.6959 90.788 45.0759C91.2017 44.5003 91.7412 44.0117 92.3715 43.6418C93.0018 43.2719 93.7088 43.0288 94.4468 42.9285Z" fill="#0A2FF1"/>
<path d="M107.241 50.8195L108.086 49.9068C106.639 48.7472 103.269 47.1688 100.884 49.4773L101.81 50.3148C103.952 48.2425 107.102 50.7121 107.241 50.8195Z" fill="#0A2FF1"/>
<path d="M150.232 53.6864L151.39 53.1495C151.123 52.6556 148.68 48.2534 145.809 47.781C143.123 47.3515 125.79 48.6292 125.06 48.6829L125.165 49.8747C130.132 49.5096 143.505 48.6185 145.577 48.962C147.465 49.2734 149.549 52.4838 150.232 53.6864Z" fill="#0A2FF1"/>
<path d="M127.373 98.5449C117.747 108.194 110.433 125.18 128.482 114L127.373 98.5449Z" fill="#04146C"/>
<path d="M147.534 97.2689C155.705 107.169 166.166 123.153 147.192 113.627L147.534 97.2689Z" fill="#04146C"/>
<path d="M18.5535 196.94H161.738C161.738 194.07 159.411 191.743 156.541 191.743H126.076L112.429 117.804C112.157 116.333 110.874 115.265 109.378 115.265H5.73698C3.79565 115.265 2.33147 117.028 2.68808 118.937L17.029 195.674C17.1662 196.408 17.8068 196.94 18.5535 196.94Z" fill="#04146C"/>
<circle cx="61.8849" cy="144.333" r="3.85217" fill="white"/>
<path d="M25.1368 65.4701L25.1368 47.854C20.9702 48.0587 16.9992 49.9568 14.0192 53.2106C11.0211 56.4842 9.26282 60.8736 9.09553 65.4973L25.1368 65.4701Z" stroke="#3FFFF3" stroke-width="1.45294"/>
<path d="M239.134 179.438H186.828V184.524H239.134V179.438Z" fill="#3FFFF3"/>
<path d="M175.119 29.1314L183.552 34.2481L191.985 39.365L191.985 29.1314L191.985 18.8975L183.552 24.0144L175.119 29.1314Z" fill="#3FFFF3"/>
</svg>
